<?xml version="1.0" standalone="no"?>
<!DOCTYPE svg PUBLIC "-//W3C//DTD SVG 20010904//EN"
 "http://www.w3.org/TR/2001/REC-SVG-20010904/DTD/svg10.dtd">
<svg version="1.0" xmlns="http://www.w3.org/2000/svg"
 width="128.000000pt" height="128.000000pt" viewBox="0 0 128.000000 128.000000"
 preserveAspectRatio="xMidYMid meet">

<g transform="translate(0.000000,128.000000) scale(0.100000,-0.100000)"
fill="#000000" stroke="none">
<path d="M129 1265 c-15 -8 -30 -22 -34 -32 -16 -42 -17 -190 -2 -278 16 -90
16 -91 -7 -140 -50 -104 -86 -261 -86 -370 0 -165 203 -359 440 -422 90 -24
310 -24 400 0 237 63 440 257 440 422 0 111 -53 324 -97 392 -12 19 -13 31 -2
80 17 75 18 291 2 319 -20 35 -65 48 -120 35 -65 -17 -179 -72 -231 -113 l-42
-34 -75 10 c-47 6 -103 6 -150 0 -73 -10 -76 -9 -108 17 -48 39 -134 85 -204
108 -73 24 -89 25 -124 6z m105 -55 c70 -24 169 -76 191 -100 21 -23 12 -38
-31 -56 -40 -17 -62 -9 -93 35 -27 38 -108 91 -138 91 -25 0 -30 19 -11 38 15
15 15 15 82 -8z m894 8 c19 -19 14 -38 -12 -38 -30 0 -91 -40 -143 -97 -34
-36 -47 -43 -65 -38 -32 10 -68 34 -68 45 0 22 110 87 205 121 61 22 68 22 83
7z m-945 -99 c12 -7 50 -38 84 -70 48 -46 68 -59 93 -59 38 0 103 32 124 61
18 27 124 40 227 29 55 -6 74 -12 85 -29 21 -29 86 -61 124 -61 25 0 45 13 93
59 77 73 103 87 124 70 12 -11 14 -27 8 -89 -4 -41 -9 -85 -12 -98 l-5 -23
-23 21 c-22 20 -55 19 -55 -2 0 -6 18 -31 41 -55 73 -80 130 -254 133 -408 1
-100 -19 -143 -113 -235 -122 -120 -268 -174 -471 -174 -203 0 -349 54 -471
174 -94 92 -114 135 -112 236 3 159 69 356 138 411 37 29 45 57 21 66 -8 3
-26 -3 -39 -13 l-25 -20 -6 33 c-16 91 -18 157 -6 172 15 18 15 18 43 4z"/>
<path d="M351 699 c-30 -28 -25 -75 10 -102 64 -47 136 46 79 103 -26 26 -60
25 -89 -1z"/>
<path d="M846 699 c-58 -46 -5 -137 64 -109 51 21 57 95 11 119 -29 16 -45 14
-75 -10z"/>
<path d="M585 545 c-45 -16 -75 -47 -75 -79 0 -32 35 -83 70 -101 35 -18 32
-28 -12 -51 -24 -12 -46 -15 -88 -10 -46 5 -59 4 -63 -8 -4 -9 2 -21 11 -28
10 -7 28 -29 39 -48 71 -116 285 -113 348 4 11 20 28 39 38 42 10 3 17 13 15
22 -3 14 -14 17 -68 14 -52 -2 -72 1 -98 18 -32 19 -35 40 -7 40 7 0 27 16 44
35 55 63 36 126 -48 154 -43 14 -57 13 -106 -4z"/>
</g>
</svg>
